# xmcd
#
# Track frame offsets: 
#        150
#        10730
#        21720
#        31365
#        43390
#        56817
#        71272
#        89192
#        101767
#        115992
#
# Disc length: 1790 seconds
#
# Revision: 1
# Processed by: cddbd v1.5.1PL0 Copyright (c) Steve Scherf et al.
# Submitted via: ExactAudioCopy v0.95a5
#
DISCID=9106fc0a
DTITLE=Crystal Gayle - Best Of Crystal Gayle
DYEAR=1900
DGENRE=Country
TTITLE0=Your Old Cold Shoulder
TTITLE1=Ready For The Times To Get Better
TTITLE2=Your Kisses Will
TTITLE3=Beyond You
TTITLE4=Heart Mender
TTITLE5=River Road
TTITLE6=One More Time (Karneval)
TTITLE7=This Is My Year For Mexico
TTITLE8=Make A Dream Come True
TTITLE9=We Must Believe In Magic
EXTD=
EXTT0=
EXTT1=
EXTT2=
EXTT3=
EXTT4=
EXTT5=
EXTT6=
EXTT7=
EXTT8=
EXTT9=
PLAYORDER=
